<svg width="500" height="500" viewBox="0 0 500 500" fill="none" xmlns="http://www.w3.org/2000/svg">
<rect width="500" height="500" fill="#F5F5F5"/>
<g id="Frame 1">
<rect width="500" height="500" fill="#1E123C"/>
<path id="left-one" d="M248.782 118.272L57.3696 161.024C56.3269 161.257 56.3269 162.743 57.3696 162.976L248.782 205.728C249.407 205.868 250 205.392 250 204.752V162V119.248C250 118.608 249.407 118.132 248.782 118.272Z" fill="#1E123C" stroke="white" stroke-width="5"/>
<path id="right-one" d="M251.218 205.728L442.63 162.976C443.673 162.743 443.673 161.257 442.63 161.024L251.218 118.272C250.593 118.132 250 118.608 250 119.248V162V204.752C250 205.392 250.593 205.868 251.218 205.728Z" fill="#1E123C" stroke="white" stroke-width="5"/>
<path id="left-three" d="M250 382.752V297.248C250 296.608 249.407 296.132 248.782 296.272L57.3696 339.024C56.3269 339.257 56.3269 340.743 57.3696 340.976L248.782 383.728C249.407 383.868 250 383.392 250 382.752Z" fill="#1E123C" stroke="white" stroke-width="5"/>
<path id="right-three" d="M250 297.248V382.752C250 383.392 250.593 383.868 251.218 383.728L442.63 340.976C443.673 340.743 443.673 339.257 442.63 339.024L251.218 296.272C250.593 296.132 250 296.608 250 297.248Z" fill="#1E123C" stroke="white" stroke-width="5"/>
<path id="left-two" d="M247.694 207.515L57.3696 250.024C56.3269 250.257 56.3269 251.743 57.3696 251.976L247.694 294.485C248.556 294.678 249.226 293.739 248.764 292.986L223.321 251.523C223.124 251.202 223.124 250.798 223.321 250.477L248.764 209.014C249.226 208.261 248.556 207.322 247.694 207.515Z" fill="#1E123C" stroke="white" stroke-width="5"/>
<path id="left-two_2" d="M252.306 294.485L442.63 251.976C443.673 251.743 443.673 250.257 442.63 250.024L252.306 207.515C251.444 207.322 250.774 208.261 251.236 209.014L276.679 250.477C276.876 250.798 276.876 251.202 276.679 251.523L251.236 292.986C250.774 293.739 251.444 294.678 252.306 294.485Z" fill="#1E123C" stroke="white" stroke-width="5"/>
</g>
</svg>
