<svg width="500" height="500" viewBox="0 0 500 500" fill="none" xmlns="http://www.w3.org/2000/svg">
<rect width="500" height="500" fill="#F5F5F5"/>
<g id="logo-small">
<rect width="500" height="500" fill="#1E123C"/>
<g id="v-logo">
<path d="M250 355L185.5 111L250 233L320 111L250 355L300.5 233L350 111L320 355L300.5 233L275.5 387.5L250 355L225 387.5L200.5 233L185.5 355L150 111L200.5 233L250 355Z" fill="white"/>
<path d="M185.5 111L187.71 109.832C187.116 108.708 185.774 108.209 184.59 108.671C183.407 109.134 182.758 110.41 183.083 111.639L185.5 111ZM320 111L322.403 111.689C322.752 110.474 322.138 109.19 320.974 108.697C319.81 108.205 318.461 108.659 317.832 109.756L320 111ZM350 111L352.481 111.305C352.634 110.06 351.842 108.895 350.628 108.58C349.414 108.265 348.155 108.898 347.683 110.06L350 111ZM320 355L317.531 355.395C317.728 356.625 318.8 357.522 320.045 357.5C321.291 357.477 322.329 356.541 322.481 355.305L320 355ZM275.5 387.5L273.533 389.043C274.146 389.824 275.163 390.169 276.124 389.921C277.086 389.673 277.809 388.879 277.968 387.899L275.5 387.5ZM150 111L152.31 110.044C151.828 108.879 150.553 108.255 149.337 108.59C148.121 108.924 147.344 110.112 147.526 111.36L150 111ZM185.5 355L183.026 355.36C183.206 356.599 184.276 357.514 185.528 357.5C186.78 357.486 187.829 356.548 187.981 355.305L185.5 355ZM200.5 233L202.817 232.06L202.813 232.052L202.81 232.044L200.5 233ZM225 387.5L222.531 387.892C222.687 388.878 223.416 389.676 224.383 389.923C225.351 390.169 226.373 389.816 226.982 389.024L225 387.5ZM250 233L247.79 234.168C248.216 234.974 249.046 235.484 249.957 235.5C250.868 235.515 251.715 235.034 252.168 234.244L250 233ZM252.417 354.361L187.917 110.361L183.083 111.639L247.583 355.639L252.417 354.361ZM317.597 110.311L247.597 354.311L252.403 355.689L322.403 111.689L317.597 110.311ZM347.519 110.695L317.519 354.695L322.481 355.305L352.481 111.305L347.519 110.695ZM252.31 355.956L302.81 233.956L298.19 232.044L247.69 354.044L252.31 355.956ZM302.817 233.94L352.317 111.94L347.683 110.06L298.183 232.06L302.817 233.94ZM322.469 354.605L302.969 232.605L298.031 233.395L317.531 355.395L322.469 354.605ZM298.032 232.601L273.032 387.101L277.968 387.899L302.968 233.399L298.032 232.601ZM277.467 385.957L251.967 353.457L248.033 356.543L273.533 389.043L277.467 385.957ZM147.526 111.36L183.026 355.36L187.974 354.64L152.474 110.64L147.526 111.36ZM147.69 111.956L198.19 233.956L202.81 232.044L152.31 110.044L147.69 111.956ZM198.183 233.94L247.683 355.94L252.317 354.06L202.817 232.06L198.183 233.94ZM187.981 355.305L202.981 233.305L198.019 232.695L183.019 354.695L187.981 355.305ZM198.031 233.392L222.531 387.892L227.469 387.108L202.969 232.608L198.031 233.392ZM226.982 389.024L251.982 356.524L248.018 353.476L223.018 385.976L226.982 389.024ZM183.29 112.168L247.79 234.168L252.21 231.832L187.71 109.832L183.29 112.168ZM252.168 234.244L322.168 112.244L317.832 109.756L247.832 231.756L252.168 234.244Z" fill="#1E123C"/>
</g>
<path id="rectangle" d="M242.273 392.854C242.097 392.395 242.096 391.889 242.27 391.43L248.129 375.943C248.781 374.221 251.219 374.221 251.871 375.943L257.73 391.43C257.904 391.889 257.903 392.395 257.727 392.854L251.867 408.131C251.211 409.843 248.789 409.843 248.133 408.131L242.273 392.854Z" fill="white"/>
</g>
</svg>
